<svg xmlns="http://www.w3.org/2000/svg" xmlns:xlink="http://www.w3.org/1999/xlink" width="500" zoomAndPan="magnify" viewBox="0 0 375 374.999991" height="500" preserveAspectRatio="xMidYMid meet" version="1.0"><defs><g/></defs><g fill="#ff577f" fill-opacity="1"><g transform="translate(62.871378, 226.237073)"><g><path d="M 35.484375 14.171875 L 35.484375 0 L 21.3125 0 L 21.3125 -71.09375 L 35.484375 -71.09375 L 35.484375 -85.265625 L 21.3125 -85.265625 L 21.3125 -71.09375 L 7.140625 -71.09375 L 7.140625 0 L 21.3125 0 L 21.3125 14.171875 Z M 35.484375 14.171875 "/></g></g></g><g fill="#ff577f" fill-opacity="1"><g transform="translate(96.755587, 226.237073)"><g><path d="M 78.125 0 L 78.125 -71.09375 L 63.953125 -71.09375 L 63.953125 -14.171875 L 49.765625 -14.171875 L 49.765625 -71.09375 L 35.484375 -71.09375 L 35.484375 -14.171875 L 21.3125 -14.171875 L 21.3125 -71.09375 L 7.140625 -71.09375 L 7.140625 0 Z M 78.125 0 "/></g></g></g><g fill="#ff577f" fill-opacity="1"><g transform="translate(173.263557, 226.237073)"><g><path d="M 21.3125 0 L 21.3125 -71.09375 L 7.140625 -71.09375 L 7.140625 0 Z M 21.3125 0 "/></g></g></g><g fill="#ff577f" fill-opacity="1"><g transform="translate(192.975374, 226.237073)"><g><path d="M 78.125 0 L 78.125 -14.171875 L 21.3125 -14.171875 L 21.3125 -56.8125 L 78.125 -56.8125 L 78.125 -71.09375 L 7.140625 -71.09375 L 7.140625 0 Z M 78.125 0 "/></g></g></g><g fill="#ff577f" fill-opacity="1"><g transform="translate(269.483344, 226.237073)"><g><path d="M 21.3125 14.171875 L 21.3125 0 L 35.484375 0 L 35.484375 -71.09375 L 21.3125 -71.09375 L 21.3125 -85.265625 L 7.140625 -85.265625 L 7.140625 -71.09375 L 21.3125 -71.09375 L 21.3125 0 L 7.140625 0 L 7.140625 14.171875 Z M 21.3125 14.171875 "/></g></g></g></svg>